<?xml version="1.0" standalone="no"?>
<!DOCTYPE svg PUBLIC "-//W3C//DTD SVG 20010904//EN"
 "http://www.w3.org/TR/2001/REC-SVG-20010904/DTD/svg10.dtd">
<svg version="1.0" xmlns="http://www.w3.org/2000/svg"
 width="128.000000pt" height="128.000000pt" viewBox="0 0 128.000000 128.000000"
 preserveAspectRatio="xMidYMid meet">

<g transform="translate(0.000000,128.000000) scale(0.100000,-0.100000)"
fill="#ffffff" stroke="white" stroke-width="10">
<path d="M633 1015 c-14 -10 -24 -12 -28 -5 -10 16 -62 12 -79 -6 -12 -12 -26
-14 -56 -9 -45 8 -90 -13 -90 -41 0 -8 -9 -28 -21 -43 -18 -25 -19 -32 -8 -52
8 -13 15 -33 16 -44 1 -11 5 -34 9 -51 6 -31 6 -31 -47 -37 -89 -11 -137 -78
-88 -123 17 -15 34 -19 80 -17 l59 2 0 -95 c0 -86 3 -102 27 -146 47 -87 157
-130 276 -109 84 15 145 54 185 121 30 50 32 61 32 141 l0 87 65 -6 c78 -6 95
5 95 59 0 33 -5 41 -30 54 -16 8 -52 15 -80 15 l-50 0 0 40 c0 22 4 40 10 40
34 0 35 135 0 170 -11 11 -42 20 -89 24 -39 4 -71 11 -71 15 0 11 -47 31 -73
31 -13 0 -32 -7 -44 -15z m100 -15 c16 -13 48 -22 89 -26 34 -4 70 -13 79 -21
9 -8 19 -38 23 -70 7 -61 -9 -93 -45 -93 -10 0 -21 -4 -24 -10 -8 -13 -48 -13
-62 1 -8 8 -17 8 -31 0 -29 -15 -68 -14 -102 4 -27 14 -29 13 -35 -4 -7 -24
-58 -45 -90 -37 -13 3 -34 16 -45 28 -16 17 -23 19 -32 10 -28 -28 -97 1 -84
35 3 8 -1 25 -10 38 -12 18 -13 28 -4 44 6 12 15 21 20 21 6 0 10 11 10 25 0
33 29 46 82 39 33 -5 47 -2 57 10 15 18 66 22 76 6 4 -7 14 -5 28 5 30 21 69
19 100 -5z m47 -237 l101 3 -3 -192 -3 -192 -31 -39 c-37 -45 -95 -80 -150
-88 -36 -6 -41 -5 -52 20 -7 14 -12 50 -12 79 0 50 2 54 28 59 34 8 59 24 49
33 -3 4 -12 2 -19 -4 -27 -22 -82 -24 -120 -4 -21 11 -38 16 -38 12 0 -12 23
-28 51 -35 25 -6 27 -12 31 -68 3 -34 9 -71 13 -81 8 -17 4 -18 -42 -14 -68 7
-122 36 -158 87 l-30 43 -3 188 -4 188 44 4 c31 3 49 0 67 -14 34 -26 84 -23
118 6 20 18 32 22 45 15 9 -5 62 -8 118 -6z"/>
<path d="M521 681 c-26 -26 -26 -36 -1 -61 24 -24 38 -25 68 -4 37 26 27 67
-20 79 -19 5 -32 1 -47 -14z m73 -17 c9 -22 -11 -44 -41 -44 -25 0 -39 20 -29
45 8 21 62 20 70 -1z"/>
<path d="M560 640 c0 -5 5 -10 11 -10 5 0 7 5 4 10 -3 6 -8 10 -11 10 -2 0 -4
-4 -4 -10z"/>
<path d="M660 682 c-30 -24 -21 -67 15 -76 55 -14 96 43 55 76 -28 23 -42 23
-70 0z m68 -29 c-2 -23 -9 -29 -34 -31 -22 -2 -33 2 -38 14 -9 24 12 44 46 44
26 0 29 -3 26 -27z"/>
<path d="M675 640 c-3 -5 -1 -10 4 -10 6 0 11 5 11 10 0 6 -2 10 -4 10 -3 0
-8 -4 -11 -10z"/>
</g>
</svg>
